<?xml version="1.0" encoding="utf-8"?>
<!-- Generator: Adobe Illustrator 22.0.1, SVG Export Plug-In . SVG Version: 6.00 Build 0)  -->
<svg version="1.1" xmlns="http://www.w3.org/2000/svg" xmlns:xlink="http://www.w3.org/1999/xlink" x="0px" y="0px"
	 viewBox="0 0 1920 1280" style="enable-background:new 0 0 1920 1280;" xml:space="preserve">
<style type="text/css">
	.st0{display:none;}
	.st1{display:inline;}
	.st2{display:inline;fill:none;stroke:#E62639;stroke-width:6.8898;stroke-miterlimit:10;}
	.st3{display:inline;fill:#FFFFFF;stroke:#E62639;stroke-width:8.6958;stroke-miterlimit:10;}
	.st4{display:inline;fill:none;stroke:#E62639;stroke-width:7.818;stroke-miterlimit:10;}
	.st5{display:inline;fill:none;stroke:#E62639;stroke-miterlimit:10;}
	.st6{fill:none;stroke:#EDBBEF;stroke-width:6;stroke-linejoin:round;stroke-miterlimit:10;}
	.st7{fill:none;stroke:#EDBBEF;stroke-width:6.8679;stroke-linejoin:round;stroke-miterlimit:10;}
	.st8{fill:none;stroke:#EDBBEF;stroke-width:6.3096;stroke-linejoin:round;stroke-miterlimit:10;}
	.st9{fill:#FFFFFF;stroke:#EDBBEF;stroke-width:6;stroke-linejoin:round;stroke-miterlimit:10;}
	.st10{fill:#FFFFFF;stroke:#EDBBEF;stroke-width:6.3967;stroke-linejoin:round;stroke-miterlimit:10;}
	.st11{fill:#FFFFFF;stroke:#EDBBEF;stroke-width:6.3284;stroke-linejoin:round;stroke-miterlimit:10;}
	.st12{fill:#606060;}
	.st13{fill:#DDDD6F;stroke:#FF80FF;stroke-width:4;stroke-miterlimit:10;}
	.st14{fill:#EFD9AF;}
	.st15{fill:#F7D7DC;}
	.st16{fill:#CE811B;}
	.st17{fill:#78AF54;}
	.st18{fill:#C2D8B4;}
	.st19{fill:none;stroke:#D1B18B;stroke-width:4;stroke-miterlimit:10;}
	.st20{fill:none;}
	.st21{display:inline;fill:#F7F7F7;stroke:#FF80FF;stroke-width:6;stroke-linejoin:round;stroke-miterlimit:10;}
</style>
<g id="Lager_1" class="st0">
	<g id="Lager_1_1_" class="st1">
	</g>
	<polyline class="st2" points="1210.8,1269.4 1210.8,530.8 1561.2,530.8 1561.2,1269.4 	"/>
	<path class="st3" d="M1920,1168.4c0,0-36.8-2-127,0s-132.9-6-144.8,0s-49.9,0-49.9,0s-14.2,81,0,84s321.7,0,321.7,0"/>
	<path class="st4" d="M1177.3,1179.2c0,0-4-236,0-321.4s-1-139.1,0-188.1s-4-126.6,2-139.1s10-29.7,10-29.7s340-2.9,372,0s22-1,22-1
		s10,494.1,9,540.2s0,130.5,0,130.5"/>
	<line class="st5" x1="948.8" y1="0" x2="1509.3" y2="126.8"/>
</g>
<g id="Lager_6">
</g>
<g id="Lager_8">
</g>
<g id="Lager_2">
	<path class="st6" d="M1212.4,1174.3c0,0,193.6,0,243.6,0s105.2,0,105.2,0"/>
	<path class="st6" d="M1212.4,955.1c0,0,124.6,0,159.1,0s96.7-6,132,0c35.2,6,57.6-4.1,57.6-4.1"/>
	<path class="st7" d="M1295.1,524.7c0,0-1.5,214.3,0,237.9c1.5,23.6,232.5,0,232.5,0l30.4-2.2"/>
	<polyline class="st6" points="1295.1,765.1 1294.4,789.1 1313.1,804.1 1213.2,804.1 	"/>
	<polyline class="st6" points="1561.2,1141.1 1496.1,1135.1 1496.1,973.1 1561.2,973.1 	"/>
	<line class="st6" x1="1294.4" y1="789.1" x2="1212.1" y2="789.1"/>
	<path class="st6" d="M1920,984c0,0-226,0-236-1s0,0,6-21.5h230"/>
	<polyline class="st6" points="1740,1273.2 1872,984 1896,984 1758.5,1277.5 	"/>
	<polyline class="st6" points="1790,984 1897.5,1277.9 1876.3,1277.5 1772,984 	"/>
	<path class="st6" d="M1713,972.8c0,0,13-82.5,27-82.5s32,82.5,32,82.5H1713z"/>
	<polyline class="st8" points="1331.1,957 1331.1,1207 1347,1207 1347,1162.7 	"/>
	<rect x="1350.6" y="973.1" class="st6" width="120" height="175.5"/>
	<path class="st9" d="M1210.8,986c0,0,136.2,4.5,165.2,5s29,0.5,29,0.5s-9.5,131.3-11,157.1c-0.3,5.6-9.2,9.2-22.8,11.4
		c-48.6,7.7-158-2.9-158-2.9"/>
	<line class="st9" x1="1376" y1="991" x2="1371.2" y2="1159.9"/>
	<line class="st9" x1="1358.1" y1="991" x2="1354.6" y2="1159.9"/>
	<line class="st9" x1="1307.9" y1="991" x2="1307.9" y2="1159.9"/>
	<line class="st9" x1="1294.4" y1="991" x2="1294.4" y2="1159.9"/>
	<line class="st9" x1="1260.5" y1="991" x2="1260.5" y2="1159.9"/>
	<line class="st9" x1="1247.1" y1="991" x2="1247.1" y2="1159.9"/>
	<line class="st10" x1="1209.9" y1="1028.4" x2="1401.9" y2="1028.4"/>
	<line class="st10" x1="1209.9" y1="1041.9" x2="1401.9" y2="1041.9"/>
	<line class="st11" x1="1209.9" y1="1083.5" x2="1397.9" y2="1083.5"/>
	<line class="st11" x1="1209.9" y1="1097" x2="1397.9" y2="1097"/>
	<line class="st11" x1="1209.9" y1="1122.2" x2="1397.9" y2="1122.2"/>
	<line class="st11" x1="1209.9" y1="1135.7" x2="1397.9" y2="1135.7"/>
</g>
<g id="Karmar">
	<path class="st12" d="M1561.2,1241.8c0,0-12.7-0.3-23.2-0.1c-10.5,0.2-29.8-0.2-37.5-0.8c-7.8-0.5-39-1.7-61-0.8
		c-22,0.9-67,1.1-91.5,0.3s-115.5,0-137.2,0v16.8c0,0,6.8,0,14.1,0c7.3,0,13.8-0.1,21.2,0c7.4,0.1,20.9,0.1,38,0s33.7,0.9,46.3,0.6
		s38.2-0.4,50.1-0.3s31.8,0.9,42.4,1.3s42.9,0.9,57.5,1s59.4-0.1,64.5-0.4c5.1-0.3,16.3,0.2,16.3,0.2V1241.8z"/>
	<path class="st13" d="M0.2,1249c2.1,0,9.5,0.6,15,0.2c11-0.8,44.5,3.3,68-0.3c23.5-3.6,61,1.6,112,0s145,0.1,188,0s205-2.4,247-2.7
		c42-0.3,88.5,1.8,154,2.5s60-0.4,82.3,0c22.3,0.3,59.5-3.6,98.3-2.2s203.9,0,203.9,0c4,0,6.8,0,6.8,0V1218
		c-6.6,0-25.3-0.2-47.5-0.5c-24.5-0.3-53.3-2.5-74.6-2.5c-34.8,0-75.2-0.5-154.3-0.1c-13.2,0.1-27.5,2.1-43.1,2.1
		c-30.7,0-51.4-2.2-66.4-2.6c-38-0.9-39.9-0.4-78.6-0.4c-54,0-144.2,1.5-190.3,1.5c-24.9,0-51.2,0.6-75.2,0.2
		c-20.5-0.3-39.4-1.7-54.2-1.7c-32,0-49.2,2-90.3,2c-22.9,0-52.2-0.4-78.4,0.2c-20.9,0.4-39.9,1.8-51.9,1.8c-11.1,0-37-1.3-64.2-1.7
		c-39.5-0.6-81.7-0.3-85.8-0.3c-6.8,0-20.5,0-20.5,0"/>
	<path class="st13" d="M1920,1223.3c0,0-14.8,0-22.7,0c-7.8,0-35.3-2-44.7-1.7c-9.3,0.3-41.7-1-58-0.2c-16.3,0.8-84-2-92.3-2.2
		c-8.3-0.2-33,2.3-58.3,2.2s-47.5,0-47.5,0l0,26.6c3,0,44.1-0.6,65.5-0.1c22.3,0.5,68.5,4,96.5,2.5s70.3-0.9,86-1.2
		c15.8-0.3,41.5,2.4,53,1.5c11.5-0.9,22.5,0.2,22.5,0.2"/>
	<path class="st13" d="M1920,1263.9c0,0-13-0.1-21.3,0c-8.3,0.1-27.2-1.1-44.2-1.5c-6.9-0.2-22.7,0.9-40.5,1
		c-26.2,0.2-56.6-0.3-69,0.3c-10.9,0.5-29.9-0.8-47.5-1.1c-15.8-0.3-30.5,0.5-37,0.7c-10.5,0.4-31.5,0.1-39.5,0.3
		c-8,0.2-24.5,0-24.5,0v-15.5c0,0,43.3-0.6,65.5-0.1s68.5,4,96.5,2.5s70.3-0.9,86-1.2c15.8-0.3,41.5,2.4,53,1.5
		c11.5-0.9,22.5,0.2,22.5,0.2"/>
	<path class="st13" d="M0,1262c3.1,0,7,1,17,1c5.3,0,33.5-1.4,64.8-1.8c27.2-0.3,56.9,0.3,76.2,0.3c41.5,0,44.8,0.5,104,0.5
		c32.9,0,57.5-1.5,82.1-1.9c19.6-0.3,39.2,0.4,62.9,0.4c41.5,0,32.1,1.8,71,1.3c11.2-0.2,26.4-1.3,48-1.3c20.1,0,40.7,0.2,61.7,0.5
		c79.5,1.2,163.4,2.2,239.8,2.2c33.5,0,70.1-1.1,105.5-1.3c31.5-0.2,62,0.1,88.5,0.4c29.6,0.3,54.2-0.2,69.4-0.2
		c7.4,0,22.4,0.2,33.4,0.2c16.3,0,29.8-0.2,39.3-0.2c4.8,0,11.9,0,11.9,0s0-4.3,0-7.8s0-7.8,0-7.8s-2.8,0-6.8,0
		c0,0-165.2,1.4-203.9,0s-75.9,2.5-98.3,2.2c-22.3-0.3-16.8,0.7-82.3,0s-112-2.8-154-2.5c-42,0.3-204,2.7-247,2.7s-137-1.6-188,0
		s-88.5-3.6-112,0c-23.5,3.6-57-0.5-68,0.3c-5.5,0.4-14.1-0.2-15.2-0.2"/>
	<g>
		<path class="st13" d="M1565.8,513.8c1.4,0,4.3,0,4.3,0s0,18.1,0,31.9c0,13.8-0.3,22.3,0,35c0.3,12.7,1.3,30.8,1,40.7
			c-0.5,15.8,2.1,36.2,0.1,47.7c-2.1,11.5-2.6,35-2.2,47.7c0.3,12.7-2.3,63.7-0.7,83c1.7,19.3,3.1,41,3.7,60s-1,51.7-1,67
			c0,13.3-0.5,45.2-0.4,66.7c0.2,21.5,1,35.5,1.7,52.7c0.7,17.2-1.3,44-1.3,59.7c0,15.7,0.3,46.7,0.3,60.3s-1,50.3-1,56
			s0.8,29.3,0.7,33.8c-0.2,4.5-0.3,7.3-0.3,7.3c3.7,0,6.9,0,9.8,0.1c4.4,0.1,16,0.3,16,0.3v-6.1v-35.9c0,0,1-43.5,1-67.4
			c0-23.9-1.8-61.9-2-94.1s0.3-80.5,0.2-98.3c-0.2-17.8,1-50,0.7-69.7c-0.3-19.7-0.8-68-0.3-85s-1-51.8-2-75.5s-1.5-56.3-1-82
			s0-47.5-0.5-60s0.4-43.1-0.3-54.3s1-26.9,0.5-34s0-13.6,0-13.6h-3.4c0,0-6.1,0.3-14,0c-8-0.3-12-0.3-17.3,0s-56.3,2.9-68,2.4
			s-56.8-1.5-70-1.1s-96,1.1-117.5,1.1s-90.7-2.3-90.7-2.3l-17.8-0.1l-16.3,0c-3-0.1-0.7,43.9-2.4,73.7c-1.7,29.8,1.6,36.7,2.1,66.7
			c0.5,30,0.5,86.6-0.3,105.3c-0.9,18.7,1.8,56.7,0,86c-2.1,33.7-0.1,35-0.3,68.8c-0.2,33.8-0.8,163.2-0.7,174.8
			c0.1,11.6,0.3,29.4,0.7,65.1c0.2,16.9-1.3,39.2-1.3,50s0.1,40,0.1,40v15v13.5v15.5h13.5c3.4,0,7.2,0,10.7,0c0,0,0.3-27,0-43.7
			c-0.3-16.7,1-59.3,0-72c-1-12.7,1.3-58.3,0.4-72c-0.9-13.7,1.6-28.9,0.2-44c-1.4-15.2-0.8-49-0.8-59.3
			c-0.1-10.3,0.9-36.5,0.6-52.7c-0.3-16.2-2.5-50.8-0.7-71c1.8-20.2,0.1-95.3,0.3-114.7c0.2-19.3,2.5-63.9,1.4-83.8
			s-0.9-79.7-1-94.2s-0.2-11.5,1-20s0.3-9,0.1-13.3c-0.2-4.3,0.2-8,0.2-8h10.5c0,0,33.5,0.5,48.2,0s46.7-0.3,57.3,0
			c10.7,0.3,16.3,0.7,26-0.3c9.7-1,37.7,0.9,48,0c10.3-0.9,38.2,0.2,52.7,0.7s58.3,1,71,0s41.6,0.2,42.9,0.2
			S1564.4,513.8,1565.8,513.8z"/>
	</g>
	<path class="st13" d="M1199.7,1262c0,0,0.3-27,0-43.7c-0.3-16.7,1-59.3,0-72c-1-12.7,1.3-58.3,0.4-72c-0.9-13.7,1.6-28.9,0.2-44
		c-1.4-15.2-0.8-49-0.8-59.3s0.9-36.5,0.6-52.7c-0.3-16.2-2.5-50.8-0.7-71c1.8-20.2,0.1-95.3,0.3-114.7c0.2-19.3,2.5-63.9,1.4-83.8
		s-0.9-79.7-1-94.2s-0.2-11.5,1-20s0.3-9,0.1-13.3c-0.2-4.3,0.2-8,0.2-8h10.5v13.3c0,0-1,44.7-1,54c0,4.1-0.5,18.4-0.1,36.1
		c0.6,22.3,2,50.2,1.3,70.6c-0.4,13,0.3,25.5,0.1,37c-0.3,20.9-1.3,38.5-1.3,49.7c0,7.4-1,30.9-1,57.7c0,35.8,1,77.5,1,94.3
		c0,8.8,1.3,24.2,1.7,42c0.9,41.6,1.1,96.9,0,115.3c-1.6,26.3-1.6,103.7-1.6,118.7s0,60,0,60H1199.7z"/>
	<path class="st13" d="M1211.8,523.7c0,0,34.4,0.1,61.2-0.1c26.8-0.2,74,0.9,98,0c24-0.9,61.3-0.8,84,0.4s44.5,0.5,58.5,0
		s44.4-1.6,44.4-1.6v-8.2c0,0-30.2-1.6-42.9-0.6s-56.5,0.5-71,0s-42.3-1.5-52.7-0.7c-10.3,0.9-38.3-1-48,0c-9.7,1-15.3,0.6-26,0.3
		c-10.7-0.3-42.7-0.5-57.3,0s-48.2,0-48.2,0V523.7"/>
	<path class="st13" d="M1557.9,514.2c0,0,5.6-0.5,8-0.5s4.3,0,4.3,0s0,18.1,0,31.9c0,13.8-0.3,22.3,0,35c0.3,12.7,1.3,30.8,1,40.7
		c-0.5,15.8,2.1,36.2,0.1,47.7s-2.6,35-2.2,47.7c0.3,12.7-2.3,63.7-0.7,83c1.7,19.3,3.1,41,3.7,60s-1,51.7-1,67
		c0,13.3-0.5,45.2-0.4,66.7c0.2,21.5,1,35.5,1.7,52.7c0.7,17.2-1.3,44-1.3,59.7c0,15.7,0.3,46.7,0.3,60.3s-1,50.3-1,56
		s0.8,29.3,0.7,33.8s-0.3,7.3-0.3,7.3l-9.5,0.1c0,0,0.1-1.5,0-10.3s0-30,0-48.3c0-18.3,0-20,0-60s0-23.7,0-50c0-26.3,0-44.7,0-77.3
		c0-32.7,0-28,0-72s0-43.7,0-85.3s-3.5-35.7-3.3-64c0.2-28.3,0.4-45,0-78s3.3-54.3,3.3-76s0-27,0-47.3c0-11.3-1-30.1-1.9-45.8
		c-0.7-12.7-1.3-23.4-1.3-26.5L1557.9,514.2z"/>
	<line class="st14" x1="-0.2" y1="0" x2="1920" y2="0"/>
</g>
<g id="Lager_7">
</g>
<g id="Lager_3">
	<rect x="1102.3" y="1164.2" class="st15" width="17" height="112"/>
	<rect x="1047.8" y="1009.1" class="st15" width="59.1" height="59.1"/>
	<rect x="95.8" y="1148.6" class="st15" width="21.3" height="131.4"/>
	<polyline class="st16" points="909.1,1168 909.1,1280 886.9,1280 886.9,1168 	"/>
	<polygon class="st16" points="1135.2,1067 870.7,1067 870.7,1237.3 1098.9,1237.3 1098.9,1280 1122.8,1280 1122.8,1237.3 
		1135.2,1237.3 	"/>
	<polyline class="st16" points="117.1,1148.6 117.1,1280 95.8,1280 95.8,1148.6 	"/>
	<path class="st17" d="M118.7,1020.9c-7.3-2.3-118.7-4.2-118.7-4.2l-0.1,12.2h-0.1v108.8v5.3v89.2h127.8v-89.2v-5.3v-108.8
		C127.6,1028.9,126,1023.2,118.7,1020.9z"/>
	<circle class="st18" cx="127.5" cy="1104.4" r="45.7"/>
	<path class="st19" d="M886.9,1122.2v-41.4c0,0,64.4-0.9,83.7,0c19.3,0.9,50.7-0.3,63.3,0c12.7,0.3,57.6-0.4,68.3-0.4
		c10.7,0,17,0,17,0v41.8c0,0-32.6,0.2-45.3,0s-44.7,1.2-57.3,0s-46.3,1.2-60,0C943,1121,886.9,1122.2,886.9,1122.2z"/>
	<path class="st19" d="M886.9,1171v-41.4c0,0,64.4-0.9,83.7,0c19.3,0.9,50.7-0.3,63.3,0c12.7,0.3,57.6-0.4,68.3-0.4
		c10.7,0,17,0,17,0v41.8c0,0-32.6,0.2-45.3,0s-44.7,1.2-57.3,0s-46.3,1.2-60,0C943,1169.8,886.9,1171,886.9,1171z"/>
	<path class="st19" d="M886.9,1220.9v-41.4c0,0,64.4-0.9,83.7,0c19.3,0.9,50.7-0.3,63.3,0c12.7,0.3,57.6-0.4,68.3-0.4
		c10.7,0,17,0,17,0v41.8c0,0-32.6,0.2-45.3,0s-44.7,1.2-57.3,0s-46.3,1.2-60,0C943,1219.7,886.9,1220.9,886.9,1220.9z"/>
	<path class="st19" d="M1003.1,1091.8c0,0,9.9-0.8,11.5,5.2c1.7,6,0.9,14.9-11.5,10.6S991.6,1086.5,1003.1,1091.8z"/>
	<path class="st19" d="M1003.1,1142.3c0,0,9.9-0.8,11.5,5.2c1.7,6,0.9,14.9-11.5,10.6S991.6,1137.1,1003.1,1142.3z"/>
	<path class="st19" d="M1003.1,1192.2c0,0,9.9-0.8,11.5,5.2c1.7,6,0.9,14.9-11.5,10.6S991.6,1186.9,1003.1,1192.2z"/>
</g>
<g id="Lager_10">
	<line class="st17" x1="1063.2" y1="1009.4" x2="1086.8" y2="963.4"/>
	<path class="st17" d="M1091.3,907.4c0,0,26,13.7,23.3,35.8"/>
	<path class="st17" d="M1046.6,976.9c0,0-26.8-40.1-37.8,14.4"/>
	<path class="st17" d="M1054.8,926.4c9.5-10.7-26.8-25.3-37-10.5s-24.8,28.5,0,30S1038.8,944.4,1054.8,926.4z"/>
	<path class="st17" d="M1059.4,958c1.1-14.3-70.1,9.6-69.4,27.5s31,24.1,51.7,10.4C1062.3,982.1,1057.5,982,1059.4,958z"/>
	<path class="st17" d="M1085.4,983.8c1.1-14.3-36.6-4-35.8,14c0.7,17.9-2.5,37.7,18.1,23.9
		C1088.3,1007.9,1083.5,1007.8,1085.4,983.8z"/>
	<path class="st17" d="M1123.9,969.2c12.6,6.8,18.5-31.8,1.8-38.4c-16.7-6.6-33.4-17.6-29.2,6.8S1102.8,957.7,1123.9,969.2z"/>
	<path class="st17" d="M1071.1,980.6c12.6,6.8,18.5-31.8,1.8-38.4s-33.4-17.6-29.2,6.8S1050,969.1,1071.1,980.6z"/>
	<path class="st17" d="M1105.8,939.9c12.6,6.8,18.5-31.8,1.8-38.4c-16.7-6.6-33.4-17.6-29.2,6.8
		C1082.6,932.7,1084.7,928.4,1105.8,939.9z"/>
	<path class="st17" d="M1083,977.8c12.6,6.8,18.5-31.8,1.8-38.4c-16.7-6.6-33.4-17.6-29.2,6.8C1059.7,970.6,1061.8,966.3,1083,977.8
		z"/>
	<path class="st17" d="M1114.9,1014c12.6,6.8,18.5-31.8,1.8-38.4s-33.4-17.6-29.2,6.8S1093.7,1002.5,1114.9,1014z"/>
	<path class="st20" d="M787,1102.5c0,0,11.4,10.1,5.5,10.3"/>
	<path class="st20" d="M812.8,1089.3c0,0,11.3,7.5,2,9.3"/>
	<path class="st20" d="M798.3,1098.5c0,0-10.5-10.1-4.1-11.3"/>
	<path class="st20" d="M807,1095.8c0,0,11.1,6.4,0,9.3"/>
	<path class="st20" d="M783,1093.9c0,0-8.8-9.9,4-13.1"/>
	<path class="st20" d="M803.5,1087.3c0,0,6.4,0.1,1.3,4.5"/>
</g>
<g id="Dammsugare" class="st0">
	<path class="st21" d="M904.3,1254.4c-20.6-1.2-27.5-1.1-36.3-1c-8.8,0.1-22.7-4.1-23.9-27.2c-1.2-23.1-8.3-60.9,38.5-71.9
		c47.9-11.3,86.5-19.6,114.2-7.1c27.7,12.5,52.4,52.2,52.4,79.2s-12.9,31.7-23.4,31.4c-5.1-0.1-16-1.3-28.3-2.4
		c-13.1-1.2-27.9-2.4-39.1-2.5"/>
	<path class="st21" d="M923.7,1180.9c10.1,0.6,19.3,2.7,28.3,9.3c9,6.7,20.2,17.2,20.3,32.3c0.2,15.2-1,27.5-10.7,37.3
		c-9.7,9.8-14.8,12-24,15c-9.2,3-14,3-24.7,0s-23.5-10.5-28-20s-9.5-18.7-6.7-32.3c2.8-13.7,5.3-22.3,17.3-30.3
		S916.1,1180.4,923.7,1180.9z"/>
	<path class="st21" d="M889.3,1154.3c0,0-2.7-19.6,19.3-19.6s16.3,19.6,16.3,19.6"/>
	<path class="st21" d="M925.6,1218.3c-9.5-0.2-12.9,2.9-12.9,7.5c0,4.6,1.7,13.8,10.7,13.8s10.2-5.4,10.3-10.8
		C933.8,1223.5,930.5,1218.4,925.6,1218.3z"/>
	<path class="st21" d="M917,1212.9c0,0-9.2-22-4.3-22.5c4.8-0.5,14-5.8,14.3,4c0.3,9.8-1.4,16.7-1.4,16.7"/>
	<path class="st21" d="M933.7,1212.9c0,0,3.2-16.2,7-16.5c3.8-0.3,11.2,1.5,10.3,6s-11,16-11,16"/>
	<path class="st21" d="M942.4,1226.7c0,0,11.5-7.7,15-4.1c3.5,3.7,8.5,7.2,7.7,10.3s-22.6,3.3-22.6,3.3"/>
	<path class="st21" d="M932.6,1244.1c0,0,9.2,22,4.3,22.5s-14,5.8-14.3-4c-0.3-9.8,1.4-16.7,1.4-16.7"/>
	<path class="st21" d="M944.2,1234.4c0,0,19.4,13.9,15.5,16.9s-8.8,12.3-14.3,4.1c-5.5-8.2-7.6-14.9-7.6-14.9"/>
	<path class="st21" d="M915.9,1244.1c0,0-3.2,16.2-7,16.5c-3.8,0.3-11.2-1.5-10.3-6c0.8-4.5,11-16,11-16"/>
	<path class="st21" d="M907.2,1230.2c0,0-11.5,7.7-15,4.1c-3.5-3.7-8.5-7.2-7.7-10.3c0.8-3.2,22.6-3.3,22.6-3.3"/>
	<path class="st21" d="M909.8,1220.1c0,0-13.8-1.4-14.1-6.4c-0.3-5.1-2-10.9,0.7-12.8c2.7-1.9,19.5,11.9,19.5,11.9"/>
	<path class="st21" d="M877.5,1218.3c0,0-31.8-5.2-34.7-17.7"/>
	<line class="st21" x1="972.3" y1="1232.7" x2="1047.8" y2="1239.7"/>
	<path class="st21" d="M1010.1,1258.7c0,0-7.3,15.5,6.9,15.5s8.8-16.4,8.8-16.4"/>
</g>
<g id="Lager_4">
</g>
</svg>
