<svg id="Lager_6" data-name="Lager 6" xmlns="http://www.w3.org/2000/svg" viewBox="0 0 1242.04 217.9"><defs><style>.cls-1{fill:#ff7bac;}.cls-2{fill:none;}</style></defs><title>logo2</title><path class="cls-1" d="M870.6,110.33l.39.11c2.86,15.13,5.33,30.34,8.74,45.34,1.78,7.85,3.71,15.51,4.21,23.64.67,10.94-1.92,22,1.54,32.85,1,3.06,2.83,5.55,6.11,5.36,2.86-.17,5.7-.66,8.56-.81,4.57-.24,4.57-.17,6.23-3.91,3.72,4.34,6.73-.93,8.91-.59a50.86,50.86,0,0,1,4-4.49c2.31-2,4.19-3.91,4.32-7.42.14-3.69,1.23-7.35,2-11s2-7.07,2.66-10.68c1.48-8.32,2.63-16.71,4.1-25,2-11.28,4.47-22.48,6.13-33.81,1.76-12.06,2.72-24.24,4.19-36.35,1.19-9.73,2.56-19.43,4-29.13,1-6.9-1.46-11.07-8.45-12-5.06-.65-10.32-.23-15.46.15-6.31.46-7.14,1.32-8.4,7.48-3,14.57-5.95,29.14-8.71,43.74-2,10.83-3.71,21.74-5.64,32.59-.59,3.32-1.52,6.57-2.3,9.85a105.54,105.54,0,0,1-4.14-17.45c-1.47-10-2.62-20-3.93-30a10.29,10.29,0,0,0-.63-2.88c-2.95-6.57-3.26-13.37-2.3-20.42a17.64,17.64,0,0,0-6.51-16.78c-4.41-3.73-9.79-4.43-15.08-5.16-7-1-14-.79-19.86,2.31,0,2.49.29,4.44,0,6.28-2.69,15.08-5.76,30.1-8.15,45.23-1.64,10.34-2,20.89-3.63,31.23-2.14,13.53-5,26.95-7.52,40.43-.89,4.76-1.78,9.53-2.53,14.32-.88,5.65-2.48,11.38-2.13,17,.33,5.31-1.11,10.86,1,15.83a21.27,21.27,0,0,1,3.78.71A40.68,40.68,0,0,0,848.2,219c6.12-1,7.46-2.19,8.38-8.14.41-2.63.47-5.33,1-7.94,1-4.84,2.22-9.62,3.3-14.44.43-1.88.69-3.79,1.06-5.68.54-2.69,1.15-5.36,1.64-8.06a28,28,0,0,0,.35-3.77c.05-.86-.39-1.94,0-2.55,3.13-4.94,2.19-10.79,3.69-16.11.62-2.22.13-4.76.18-7.15a40,40,0,0,1,.26-4.9c.46-3.13,1.36-6.22,1.58-9.37C870.12,124,870.3,117.17,870.6,110.33Zm341.13,102.42c.18-3.07.21-3,2.64-5,1.24-1,2.9-1.93,3.38-3.25a83.43,83.43,0,0,0,3.12-11.37c.73-3.51.9-7.14,1.57-10.67,1.24-6.47,2.86-12.87,4-19.35,1.43-8.48,2.42-17,3.78-25.51,1.09-6.85,2.76-13.61,3.61-20.48,1-8.41,1.18-16.93,2.28-25.33,1.63-12.43,3.71-24.81,5.71-37.2,1.13-7-1.4-11.38-8.53-12.21-5.51-.64-11.21-.18-16.78.37-5.11.51-5.76,1.51-6.82,6.76-3,14.68-6,29.34-8.81,44.05-2.06,10.83-3.73,21.74-5.67,32.59-.61,3.4-1.54,6.73-2.32,10.1a145.56,145.56,0,0,1-4.76-20.89c-1.31-8.78-2.2-17.63-3.29-26.45a10.61,10.61,0,0,0-.6-2.89c-3-6.67-3.39-13.59-2.33-20.75a18.29,18.29,0,0,0-14-20.31c-9.55-2.27-18.9-3.1-27.54.76,0,2.46.29,4.52,0,6.46-2.65,15-5.71,29.89-8.08,44.92-1.65,10.45-2,21.11-3.68,31.56-2.27,14.3-5.22,28.49-7.88,42.73-.91,4.87-2,9.72-2.7,14.63-.76,5.22-2,10.58-1.5,15.71.52,4.85-1.51,10,.88,14.13,2,.53,3.44.81,4.84,1.31a39.71,39.71,0,0,0,24.73.9,6.05,6.05,0,0,0,4.75-6.06,52,52,0,0,1,.92-9c.93-4.51,2.27-8.94,3.34-13.42.53-2.2.83-4.44,1.24-6.66.52-2.78,1.08-5.55,1.55-8.34a31.59,31.59,0,0,0,.31-3.77c0-.86-.36-1.95,0-2.54,3.08-4.62,2-10.17,3.53-15.15.78-2.62.19-5.63.27-8.47a36.5,36.5,0,0,1,.3-4.56c.47-3,1.36-6,1.57-9,.49-6.93.67-13.89,1-20.83,3.24,15.28,5.8,30.51,9.12,45.57,1.61,7.31,3.62,14.4,4.17,22,.82,11.38-2,22.88,1.58,34.18,1.11,3.53,2.79,5.83,6.57,5.59,2.75-.17,5.5-.8,8.23-.76,3,0,5.87.41,5.59-4.77C1205.1,217.55,1208.18,211.74,1211.73,212.75ZM488.18,136.2h-1.05c-1.14-5.83-2.5-11.63-3.36-17.5-1.47-10-2.61-20-3.94-30a15.26,15.26,0,0,0-1-4.13c-2.64-5.87-2.79-12-1.95-18.18.69-5.07.13-9.95-3-14.19-3.5-4.67-8.38-6.86-14-7.93-8.5-1.6-16.83-1.94-24.3,1.51,0,2.38.29,4.31,0,6.14C432.78,67,429.71,82,427.31,97.12c-1.66,10.45-2,21.11-3.7,31.56-2.26,14.3-5.2,28.49-7.84,42.73-.71,3.79-1.44,7.58-2,11.39-.9,5.65-2.55,11.36-2.3,17,.25,5.46-.84,11.11,1.05,16.39a16.89,16.89,0,0,1,3.62.6A40.54,40.54,0,0,0,437.88,219c7-1.07,9.82-4.73,9.8-11.59,0-4.19,1-8.42,1.77-12.58.76-3.94,2.69-7.82,2.62-11.7-.1-5.09,1.61-9.89,2.45-14.62s1.48-9.77,3-14.52c.9-2.8.31-6.06.44-9.11a43.78,43.78,0,0,1,.37-4.87c.44-2.81,1.29-5.58,1.48-8.4.47-7.1.67-14.21,1-21.32,3.24,15.3,5.82,30.52,9.11,45.59,1.55,7.09,3.59,14,4.15,21.32.89,11.61-1.94,23.34,1.61,34.86,1,3.37,2.75,5.73,6.29,5.52,2.64-.15,5.26-.61,7.9-.76,4.67-.28,4.68-.22,6.89-3.94,3.54,4.74,6.57-1.31,8.9-.56,1.61-1.94,2.8-3.45,4.07-4.88,1.09-1.25,2.89-2.23,3.3-3.64,1.66-5.76,3.1-11.6,4.24-17.49.85-4.37.94-8.9,1.69-13.3,2-11.72,4.13-23.4,6.21-35.1,1.3-7.26,2.88-14.48,3.8-21.79,1-8.07,1.12-16.26,2.19-24.32,1.64-12.44,3.71-24.82,5.72-37.2,1.12-6.91-1.28-11.2-8.18-12.14-5.06-.69-10.32-.3-15.46.06-6.59.46-7.42,1.32-8.71,7.65-2.93,14.48-5.86,28.95-8.64,43.46-1.55,8.12-2.75,16.31-4.21,24.45C490.58,124.16,489.35,130.17,488.18,136.2Zm-313.62-83c-3.52-4.66-8.63-5.75-13.83-6-6.89-.33-13.81-.18-20.71-.12-3.19,0-6,.87-7.59,4.14a14.6,14.6,0,0,1-2.63,3.38c-3.07,3.32-6.86,6.19-9.16,10C113.8,75.88,107.34,87.4,101.13,99c-2.64,4.93-4.34,10.36-6.39,15.59a166.8,166.8,0,0,0-11.11,49.12c-1,13.39-1.4,27,1.11,40.43a20,20,0,0,0,5.57,11c7.83,7.71,17.59,9.62,27.87,7.9,6.85-1.16,13.45-3.88,20.1-6.08,1.4-.46,2.56-1.64,3.81-2.52s2.71-1.86,4-2.86c2.77-2.12,5.63-4.14,8.22-6.47a54,54,0,0,0,6.3-6.79c2.21-2.85,4.77-5.71,5.94-9,1.57-4.4,2.68-8.8,6.64-11.78a2.89,2.89,0,0,0,.72-1.44c1.89-6.4,3.61-12.85,5.65-19.19,3.51-10.89,6.73-21.76,6.83-33.39,0-4.06,1.79-8.08,2.51-12.16a24.72,24.72,0,0,0-.1-5.43c-.23-4.15-.58-8.29-.71-12.44,0-.73.93-1.44,1.24-2.24.66-1.7,2-3.66,1.64-5.14A203.47,203.47,0,0,0,184.3,64c-1.58-4.13-4.64-7.7-7.05-11.51a3.3,3.3,0,0,0-.78-.61ZM243.7,145c.89,4.84,2,9.58,2.6,14.38,1.68,13.8,3.11,27.63,4.7,41.44.41,3.6.95,7.18,1.54,10.74a53.17,53.17,0,0,0,1.27,5.27c.23.87.59,1.71.93,2.66,6.14,1.59,11.33.77,17.59-2.75a42.4,42.4,0,0,1,4.25-1.81c.94-1.6,2.37-3.35,3-5.34a16.74,16.74,0,0,0,.78-6.59c-.27-3.08-1.27-6.09-1.75-9.16s-.61-5.92-1-8.88q-1.8-14.76-3.67-29.52a18.49,18.49,0,0,0-.59-3.24c-1.67-5.39-3.49-10.75-5-16.18-.21-.71.77-1.95,1.47-2.68,3.12-3.3,8.15-4,10.6-8.45,1.8-3.25,4.86-5.78,6.75-9,2.34-4,4.92-8.17,5.85-12.59A190.41,190.41,0,0,0,296,79.42,29.29,29.29,0,0,0,294.73,70c-1.11-4.25-2-8.84-4.28-12.45a26.08,26.08,0,0,0-14.9-11c-11.88-3.51-22.9-.78-33.32,5.2-1.83,1.06-3.12,1.36-5,0-6.68-4.87-19.19-4.32-25.7,1,1.78,3.56,1.93,5.19.61,11.54-5,24-10,48-15,72-2.07,10-4,20.08-5.82,30.15-1.43,7.8-2.88,15.61-3.92,23.47a169.36,169.36,0,0,0-1.9,22c0,6.07,6.08,9.05,11.48,6.37a4,4,0,0,1,2.14-.69c3.87.74,6.44-1.39,8.92-3.44,2.09.34,4.84,1,6,0a18.61,18.61,0,0,0,4.93-7.62,84.64,84.64,0,0,0,2.87-13.63c1.43-9.34,2.67-18.7,3.93-28.06.71-5.24,1.21-10.51,2-15.74a54,54,0,0,1,1.81-6.49l.81,1.19ZM658.18,52.4c2.85,4.07,1.75,8.05.91,11.87-3,13.68-6.27,27.29-9.15,41-2.14,10.2-3.79,20.51-5.72,30.75-1.91,10.07-4,20.11-5.82,30.18-1.65,9-3.33,18-4.58,27.06A114.45,114.45,0,0,0,632.51,212c.18,6.13,6.1,9,11.53,6.29a3.57,3.57,0,0,1,1.82-.62c3.93.68,6.73-1.23,9.07-4,2.26,1.53,5.38,2.3,6.29.24,1.55-3.49,5.15-5.64,5.25-10.23.11-5,2-10,2.86-15.09,1.29-7.91,2.36-15.86,3.46-23.81.72-5.24,1.22-10.51,2-15.73a52.12,52.12,0,0,1,1.82-6.48l.85,1.24L690.63,145c.88,4.67,2,9.39,2.61,14.18,1.46,12.06,2.64,24.15,4,36.22.67,6.1,1.44,12.2,2.18,18.3.55,4.48,2.81,7,7.11,6.42s8.43-2.12,12.61-3.34c1.55-.45,3-1.18,4.3-1.69,1.14-1.93,2.57-3.67,3.25-5.67s1.46-4.67.64-6.21c-2.33-4.39-1.28-9.06-2.11-13.53-.24-1.3-.24-2.64-.4-3.95q-1.9-14.94-3.83-29.86a21.18,21.18,0,0,0-.55-3.58c-1.68-5.4-3.53-10.74-5.09-16.18-.21-.73.63-2.14,1.39-2.72,2.91-2.24,6.37-3.9,8.91-6.47a60.82,60.82,0,0,0,8.5-10.93c2.41-3.94,5-8.18,5.84-12.6,1.63-8.17,2.27-16.56,3-24.89a23.74,23.74,0,0,0-1.22-8.07c-1.25-4.44-1.91-9.45-4.48-13a28.52,28.52,0,0,0-24.45-12.3,47.86,47.86,0,0,0-23.9,6.74c-1.09.63-3.11.91-4,.32C676,46.59,667.3,47.74,658.18,52.4ZM555.51,216.09l.62-.88c1.7.22,3.41.35,5.09.69,1.87.39,3.93,1.74,5.53,1.3,3.52-1,7.42-2.15,10.07-4.48,5.42-4.76,12.33-8,16-14.66.33-.6,1.2-.9,1.81-1.36,4.49-3.4,10.72-5.19,11.29-12.24,0-.46.63-.88,1-1.33,3.14-4.39,6.48-8.65,9.36-13.21,3.06-4.83,5.58-10,8.5-14.9,4.22-7.09,5.15-15.15,6.89-23,1.78-8,3-16.17,4.46-24.27,2-11.24,3.31-22.55,1.48-33.92-.79-4.9-.85-10.22-4.87-14-12.94-12.32-34.23-15.75-50.63-8.28a3.89,3.89,0,0,1-3.38-.14c-6-5-12.85-6.06-20.18-4.69-4.57.86-7.71,4-6.47,7.06,2.2,5.47.41,10.47-.47,15.57-3.09,17.93-6.6,35.79-9.59,53.74q-4.23,25.29-7.7,50.72c-1.65,12.12-2.72,24.32-4,36.48-.23,2.12,0,3.85,2.65,4.48s3.72-.37,4-1.67l7.7-2.36c.21,2.54.38,4.73.59,7.28l9.12-3.61Zm428.09-12.9c-2.5-3.19-5-5.82-6.85-8.84-4.54-7.38-3.34-15.76-2.33-23.52a303.12,303.12,0,0,1,7.16-34.94,171.2,171.2,0,0,1,7.86-23c3.67-9,7.82-17.72,12.15-26.37,2.09-4.17,5-7.93,7.7-11.79a16.57,16.57,0,0,1,2.79-2.54l1.15.31c0,2.2.53,4.57-.09,6.58-2.83,9.24-5.9,18.42-9.06,27.56-1.2,3.46-.61,4.85,2.95,5.52,1.4.26,2.77.7,4.16,1a16.24,16.24,0,0,0,15.13-3.33c3.93-3.51,6.85-8.35,9.54-13a86.2,86.2,0,0,0,6.48-14.44A103.2,103.2,0,0,0,1046,68a9.14,9.14,0,0,0-.8-5.26c-1-2.16-3-3.87-4-6-2.35-5-7.17-6.35-11.62-7.52-5.83-1.54-11.95-2-17.95-2.82-3-.42-6.23-.19-9.08-1.11-4-1.29-11.82.29-14.33,3.56a15.67,15.67,0,0,1-1.67,2c-2.62,2.46-5.83,4.5-7.82,7.38C967.78,74,960.77,91.63,955.43,109.87c-6.57,22.45-14.58,44.62-16.11,68.27-.3,4.61-.93,9.48.15,13.84a49.81,49.81,0,0,0,15.15,25.62,38.38,38.38,0,0,0,18.68,9.23c11.91,2.31,22.34-2.41,32.43-7.88a23.71,23.71,0,0,0,6.25-4.88,57.46,57.46,0,0,0,7.92-10.34c2.42-4.42,3.63-9.49,5.85-14,3.84-7.88,5.29-16.31,6.47-24.84a52.78,52.78,0,0,0,0-6.92c.17-.59.93-2.3.68-2.46-2.62-1.72-1.94-4.54-2.12-6.78-.42-5.4-1.74-7.5-6.86-9a8.59,8.59,0,0,0-1.93-.39c-9.26-.46-18.5-1-27.76-1.29-4-.09-9.28,5.27-10,9.43-.72,4,1.81,8.18,6.43,10a52.91,52.91,0,0,0,7.12,1.77C994.1,173.85,994.16,189.61,983.6,203.19Zm-604.5,8.9.9-.47,2.34,2.52-2.81-2.5.66,3,1.28,1.45,3.37-2.3,6.14,2.29,6.58-12,5,.63c0-3.87,0-7.56,0-11.25,0-2.4.09-4.82-.11-7.21-.34-4-1.07-7.9-1.29-11.87-.16-2.74.5-5.51.39-8.25-.69-17.2-2-34.39-2.11-51.59a225.84,225.84,0,0,0-4-37.46c-.54-3-.82-6.19-2-9a106.88,106.88,0,0,0-6.61-12A4.8,4.8,0,0,0,384,53.82c-8.61-1.21-17.25-2.25-25.9-3.21A2.85,2.85,0,0,0,356,52.06c-4.38,8.88-8.83,17.74-12.93,26.75-9.9,21.77-19.26,43.8-29.53,65.39-8,16.84-16.64,33.4-23.1,50.94A118,118,0,0,0,285.89,211c-.84,3.9,1.37,6.14,5.27,6.3a47.36,47.36,0,0,1,7.27.35c4,.8,7.08.15,8.54-4.12,0-.15.37-.21.9-.5l3,4.77a8.68,8.68,0,0,1,1.52-1.88c.91-.65,2.36-1.78,2.95-1.47,2.34,1.21,3.44-.39,4.35-1.74a37.35,37.35,0,0,0,4.14-7.46c3.83-10.07,7.46-20.22,11.1-30.35,1.18-3.27,2.58-5.67,6.84-4.49,1.81.5,3.95,0,5.91-.26,5.51-.7,11-1.5,16.66-2.29a9.55,9.55,0,0,1,.22,1.48c.61,13.78,1.1,27.57,1.87,41.34.14,2.41,1.26,4.84,2.3,7.09.43.94,1.9,2.09,2.79,2a78.79,78.79,0,0,0,8.56-1.63C379.71,215.84,379.4,214,379.1,212.09ZM1124.44,63.23c-.4-1.71-1.33-3.42-1-4.87.78-3.71-.26-7.1-4-8.53a24.74,24.74,0,0,0-9-1.66c-6.06.09-12.12,1.18-18.16,1.08s-11.31,3.34-17.65,1.57c-3.15-.88-7.18,1.4-10.82,2.21-1.78.4-2.39,1.43-2.45,3.27-.6,17.93-4,35.48-7.16,53.07-1.69,9.32-3.6,18.61-4.92,28a191.42,191.42,0,0,0-1.3,19.17c-.14,3.48.22,7,.36,10.46a7.24,7.24,0,0,1,.05,1.54c-.49,2.89-1.19,5.76-1.51,8.67-.93,8.41-1.58,16.85-2.63,25.24-.21,1.62-1.72,3.08-2.62,4.61l-.9-.42c1.09,5.47,2.17,10.94,3.12,15.75,4.13.23,7.49.44,10.86.6a7.34,7.34,0,0,0,1.85-.24c2.77-.54,5.51-1.3,8.31-1.63,5.51-.66,10.85-1.58,15-5.4a8.09,8.09,0,0,0,3.92-.47c2.21-1.1,4.23-2.58,6.39-3.79a7,7,0,0,1,2.18-.44c-.07.8-.15,1.59-.23,2.35,3.1-1.27,7.23.77,9.81-2.75.08-.1.83.25.87.17.88-1.58,2.07-3.12,2.44-4.83.45-2,.18-4.22.24-6.35,0-.29.09-.59.13-.89l-2.13-.83c1.24-2.95,0-5.65-3.1-7.13-3.49-1.65-6.84-.65-10.28.39-2.94.88-6,1.33-9.66,2.1,1.45-8.93-.33-17.06,2.57-24.78a6,6,0,0,0,0-2.31c-.29-5.71-1.1-11.44-.77-17.12.52-9-1.28-6.83,7.34-10.65a34.35,34.35,0,0,1,5.29-1.89,17.18,17.18,0,0,0,9.48-6.71c2-2.63,2.83-6.06,4.5-9,1.26-2.17.47-3.57-1.37-4.12-3.22-1-6.58-2-9.88-1.95-4.52,0-9,1-13.86,1.6.84-5.26-.91-10.39.59-15.8,1.23-4.4.54-9.32.79-14,.08-1.51.68-3,.66-4.49,0-3.12,1.3-4.8,4.25-5a44,44,0,0,0,4.58-.52c5.4-.89,10.79-2.53,16.18-2.51,4.5,0,8.63.26,12.47-3.44V63.68Zm-1043,51.26c-2-1.83-4.2-3.06-5.29-4.92a6,6,0,0,0-5.68-3.21,82.74,82.74,0,0,0-9.54.8c-3.43.44-6.83,1.1-11,1.79,1.88-11.17,3.68-21.85,5.47-32.53l1.06.61,2.72-2.68c1.91.15,3.87.28,5.83.46,4.56.41,8.33-3.69,13.24-2.09,1.63.53,3.78-.65,5.7-.92a4.64,4.64,0,0,1,1.82.47c1.25.39,2.49.82,3.75,1.2,2.42.74,2.61-1.6,3.41-2.77.38-.55-.32-1.92-.67-2.87a11.45,11.45,0,0,0-1.15-1.9l5.76-.55L93,61.24l2.32-1.57a72.12,72.12,0,0,0-4.19-6.13c-1.46-1.74-2.74-3.93-5.69-3.58-2.61.31-5.3,0-7.87.52-8.29,1.49-17,0-25,3.31-1.37.56-3.07.28-4.54.7-4.38,1.23-9.38-2.26-13.4,1.77-.23.23-.86.08-1.3.09a14.58,14.58,0,0,0-10.44,4.7c.33,1.78.88,3.22.79,4.62-.23,3.51-.31,7.12-1.23,10.48-4.74,17.28-7,35-9.59,52.67-2.38,16.48-4.76,33-7.27,49.43-1.49,9.8-3.45,19.54-4.76,29.37C0,213.1.15,218.69,0,224.23a3.14,3.14,0,0,0,1,2.38c4,2.59,10.41,1.39,13.18-1.63,3.07,1.17,5.62.17,7.67-2.56.64-.87,2.53-1.92,3-1.6,3.1,2,3.7-.7,5-2.25,1.19-1.39,2.5-3.68,3.84-3.74,2.54-.11,2.25-1.4,2.4-2.93.35-3.62.7-7.24,1.16-10.85q2.1-16.23,4.3-32.46c.17-1.28.82-2.48,1.07-3.76.74-3.75,2.65-7.85,1.8-11.23-1.61-6.34,2.44-11.33,2.54-17.1,0-.39.93-.91,1.51-1.1,8.13-2.68,15.86-6.73,24.73-6.76a11.13,11.13,0,0,0,4.43-1.19c.67-.31,1.58-1.65,1.39-2.07-1.16-2.55.13-4.68.92-6.85l-2.09-1.17Zm713.63,90.42c.13-1.81.77-3.44.21-4.27a30.11,30.11,0,0,0-6-7c-2.06-1.6-1.83-2.88-1.39-5,1.79-8.62,3.57-17.25,4.85-26,1.9-12.86,3.33-25.77,8.06-38.06,5.79-15,6.89-31.07,9.78-46.73.45-2.47,1.31-3.28,3.52-3,3.4.39,6.79.83,10.17,1.3,4.12.57,5.65-.74,5.65-4.88,2.56-1,3.83-4,2.35-5.4h-2.73c.49-.72.66-1.3,1-1.36,2.17-.48,3-1,1.29-3.31-1.06-1.45-1-3.72-1.46-5.59-1.41-5.21-5.16-7.43-10.28-6.21a16.33,16.33,0,0,1-3.27.39c-9.38.25-18.76.41-28.14.69-4.49.13-9,.47-13.4.7l-1-3.29c-4.84.76-9.54,4.71-9.17,7.83.48,4.15,1.18,8.29,2,12.4,1,5.44,5.94,7.64,10.3,8.26,3.9.55,4.15.44,3.06,4.18a480.7,480.7,0,0,0-16.25,79.23c-.69,5.85-2.55,11.57-3.94,17.34-.79,3.26-1.87,6.44-2.55,9.72a65.92,65.92,0,0,0-.72,7.25c-7.9,1.63-15.62,3.38-23.41,4.74-3,.52-3.55,2.1-2.71,4.34a53.48,53.48,0,0,0,3.93,8,4.16,4.16,0,0,0,2.61,2c6.43.54,12.89,1,19.35,1.16,3.29.08,6.6-.81,9.91-.8,4.73,0,9.48.3,14.19.75,3.11.3,6.17,1.09,9.25,1.67,4.72-.23,5.07-4.69,6.89-7.92l-5.1-2.87ZM376.19,25.19l.8.24c-.28,4.36,1,8,5.21,9.82a40.91,40.91,0,0,0,10.33,3.19c6.56.88,12.12-1.94,14.46-7.94,1.23-3.17,5.09-8-.77-11.32-.13-.08-.12-.42-.14-.63-.37-4.18-3.24-6-6.83-6.48-5-.73-10.09-1.16-15.15-1.4-1.2-.06-3.15.88-3.56,1.85C378.84,16.65,377.6,21,376.19,25.19ZM352.85,10.5c-7.33,0-7.59.06-10.09,7a27.68,27.68,0,0,0-1.95,8c-.11,2.52.18,5.49,1.43,7.57,3.9,6.43,19,6.78,23.51.83,3.09-4,6.35-7.83,7.08-13.32.35-2.63.05-4.05-2-5.4C365.33,11.54,359.22,10.55,352.85,10.5Zm-166,9.3c-.87-.68-2.59-1.36-2.69-2.23-.57-4.73-4-5.72-7.7-6.24-4.14-.58-8.31-.92-12.48-1.16a3.65,3.65,0,0,0-2.65,1.29c-8,10.58-3.82,21.59,9.14,24,.33.06.65.14,1,.21,5.6,1.19,13.94-3.66,14.8-11C186.41,23.1,186.61,21.58,186.84,19.8Zm-48,15.93c2.09-.8,5.36-1.14,7.17-2.94,3.74-3.74,7.44-7.76,8-13.63.18-2,0-3.69-1.8-4.41-3.94-1.57-7.93-3.62-12-4-12.49-1.24-11.05-1.62-15,10.5a10.33,10.33,0,0,0-.31,2.62c-.29,5.55,1.58,8.53,6.76,10.33A65.2,65.2,0,0,0,138.88,35.73Z" transform="translate(0 -10.13)"/><path class="cls-1" d="M870.6,110.33c-.3,6.84-.48,13.69-1,20.52-.22,3.15-1.12,6.24-1.58,9.37a40,40,0,0,0-.26,4.9c0,2.39.44,4.93-.18,7.15-1.5,5.32-.56,11.17-3.69,16.11-.39.61.05,1.69,0,2.55a28,28,0,0,1-.35,3.77c-.49,2.7-1.1,5.37-1.64,8.06-.37,1.89-.63,3.8-1.06,5.68-1.08,4.82-2.32,9.6-3.3,14.44-.53,2.61-.59,5.31-1,7.94-.92,6-2.26,7.15-8.38,8.14a40.68,40.68,0,0,1-22.13-2.13,21.27,21.27,0,0,0-3.78-.71c-2.11-5-.67-10.52-1-15.83-.35-5.6,1.25-11.33,2.13-17,.75-4.79,1.64-9.56,2.53-14.32,2.52-13.48,5.38-26.9,7.52-40.43,1.63-10.34,2-20.89,3.63-31.23,2.39-15.13,5.46-30.15,8.15-45.23.33-1.84,0-3.79,0-6.28,5.87-3.1,12.87-3.27,19.86-2.31,5.29.73,10.67,1.43,15.08,5.16a17.64,17.64,0,0,1,6.51,16.78c-1,7-.65,13.85,2.3,20.42a10.29,10.29,0,0,1,.63,2.88c1.31,10,2.46,20,3.93,30a105.54,105.54,0,0,0,4.14,17.45c.78-3.28,1.71-6.53,2.3-9.85,1.93-10.85,3.59-21.76,5.64-32.59,2.76-14.6,5.75-29.17,8.71-43.74,1.26-6.16,2.09-7,8.4-7.48,5.14-.38,10.4-.8,15.46-.15,7,.9,9.45,5.07,8.45,12-1.41,9.7-2.78,19.4-4,29.13-1.47,12.11-2.43,24.29-4.19,36.35-1.66,11.33-4.15,22.53-6.13,33.81-1.47,8.33-2.62,16.72-4.1,25-.65,3.61-1.85,7.1-2.66,10.68s-1.91,7.31-2,11c-.13,3.51-2,5.41-4.32,7.42a50.86,50.86,0,0,0-4,4.49c-2.18-.34-5.19,4.93-8.91.59-1.66,3.74-1.66,3.67-6.23,3.91-2.86.15-5.7.64-8.56.81-3.28.19-5.14-2.3-6.11-5.36-3.46-10.85-.87-21.91-1.54-32.85-.5-8.13-2.43-15.79-4.21-23.64-3.41-15-5.88-30.21-8.74-45.34Z" transform="translate(0 -10.13)"/><path class="cls-1" d="M1211.73,212.75c-3.55-1-6.63,4.8-10.77-.66.28,5.18-2.58,4.82-5.59,4.77-2.73,0-5.48.59-8.23.76-3.78.24-5.46-2.06-6.57-5.59-3.53-11.3-.76-22.8-1.58-34.18-.55-7.59-2.56-14.68-4.17-22-3.32-15.06-5.88-30.29-9.12-45.57-.3,6.94-.48,13.9-1,20.83-.21,3-1.1,6-1.57,9a36.5,36.5,0,0,0-.3,4.56c-.08,2.84.51,5.85-.27,8.47-1.48,5-.45,10.53-3.53,15.15-.4.59,0,1.68,0,2.54a31.59,31.59,0,0,1-.31,3.77c-.47,2.79-1,5.56-1.55,8.34-.41,2.22-.71,4.46-1.24,6.66-1.07,4.48-2.41,8.91-3.34,13.42a52,52,0,0,0-.92,9,6.05,6.05,0,0,1-4.75,6.06,39.71,39.71,0,0,1-24.73-.9c-1.4-.5-2.88-.78-4.84-1.31-2.39-4.16-.36-9.28-.88-14.13-.55-5.13.74-10.49,1.5-15.71.72-4.91,1.79-9.76,2.7-14.63,2.66-14.24,5.61-28.43,7.88-42.73,1.66-10.45,2-21.11,3.68-31.56,2.37-15,5.43-29.94,8.08-44.92.34-1.94,0-4,0-6.46,8.64-3.86,18-3,27.54-.76a18.29,18.29,0,0,1,14,20.31c-1.06,7.16-.68,14.08,2.33,20.75a10.61,10.61,0,0,1,.6,2.89c1.09,8.82,2,17.67,3.29,26.45a145.56,145.56,0,0,0,4.76,20.89c.78-3.37,1.71-6.7,2.32-10.1,1.94-10.85,3.61-21.76,5.67-32.59,2.8-14.71,5.85-29.37,8.81-44,1.06-5.25,1.71-6.25,6.82-6.76,5.57-.55,11.27-1,16.78-.37,7.13.83,9.66,5.21,8.53,12.21-2,12.39-4.08,24.77-5.71,37.2-1.1,8.4-1.24,16.92-2.28,25.33-.85,6.87-2.52,13.63-3.61,20.48-1.36,8.48-2.35,17-3.78,25.51-1.1,6.48-2.72,12.88-4,19.35-.67,3.53-.84,7.16-1.57,10.67a83.43,83.43,0,0,1-3.12,11.37c-.48,1.32-2.14,2.27-3.38,3.25C1211.94,209.72,1211.91,209.68,1211.73,212.75Z" transform="translate(0 -10.13)"/><path class="cls-1" d="M488.18,136.2c1.17-6,2.4-12,3.48-18.08,1.46-8.14,2.66-16.33,4.21-24.45,2.78-14.51,5.71-29,8.64-43.46,1.29-6.33,2.12-7.19,8.71-7.65,5.14-.36,10.4-.75,15.46-.06,6.9.94,9.3,5.23,8.18,12.14-2,12.38-4.08,24.76-5.72,37.2-1.07,8.06-1.17,16.25-2.19,24.32-.92,7.31-2.5,14.53-3.8,21.79-2.08,11.7-4.23,23.38-6.21,35.1-.75,4.4-.84,8.93-1.69,13.3-1.14,5.89-2.58,11.73-4.24,17.49-.41,1.41-2.21,2.39-3.3,3.64-1.27,1.43-2.46,2.94-4.07,4.88-2.33-.75-5.36,5.3-8.9.56-2.21,3.72-2.22,3.66-6.89,3.94-2.64.15-5.26.61-7.9.76-3.54.21-5.25-2.15-6.29-5.52-3.55-11.52-.72-23.25-1.61-34.86-.56-7.36-2.6-14.23-4.15-21.32-3.29-15.07-5.87-30.29-9.11-45.59-.31,7.11-.51,14.22-1,21.32-.19,2.82-1,5.59-1.48,8.4a43.78,43.78,0,0,0-.37,4.87c-.13,3.05.46,6.31-.44,9.11-1.52,4.75-2.17,9.82-3,14.52s-2.55,9.53-2.45,14.62c.07,3.88-1.86,7.76-2.62,11.7-.8,4.16-1.79,8.39-1.77,12.58,0,6.86-2.77,10.52-9.8,11.59a40.54,40.54,0,0,1-21.79-2.27,16.89,16.89,0,0,0-3.62-.6c-1.89-5.28-.8-10.93-1.05-16.39-.25-5.62,1.4-11.33,2.3-17,.61-3.81,1.34-7.6,2-11.39,2.64-14.24,5.58-28.43,7.84-42.73,1.66-10.45,2-21.11,3.7-31.56,2.4-15.13,5.47-30.15,8.15-45.24.33-1.83,0-3.76,0-6.14,7.47-3.45,15.8-3.11,24.3-1.51,5.63,1.07,10.51,3.26,14,7.93,3.17,4.24,3.73,9.12,3,14.19-.84,6.23-.69,12.31,1.95,18.18a15.26,15.26,0,0,1,1,4.13c1.33,10,2.47,20,3.94,30,.86,5.87,2.22,11.67,3.36,17.5Z" transform="translate(0 -10.13)"/><path class="cls-1" d="M174.56,53.24l1.91-1.4a3.3,3.3,0,0,1,.78.61c2.41,3.81,5.47,7.38,7.05,11.51A203.47,203.47,0,0,1,191,86.17c.38,1.48-1,3.44-1.64,5.14-.31.8-1.26,1.51-1.24,2.24.13,4.15.48,8.29.71,12.44a24.72,24.72,0,0,1,.1,5.43c-.72,4.08-2.48,8.1-2.51,12.16-.1,11.63-3.32,22.5-6.83,33.39-2,6.34-3.76,12.79-5.65,19.19a2.89,2.89,0,0,1-.72,1.44c-4,3-5.07,7.38-6.64,11.78-1.17,3.29-3.73,6.15-5.94,9a54,54,0,0,1-6.3,6.79c-2.59,2.33-5.45,4.35-8.22,6.47-1.31,1-2.67,1.93-4,2.86s-2.41,2.06-3.81,2.52c-6.65,2.2-13.25,4.92-20.1,6.08-10.28,1.72-20-.19-27.87-7.9a20,20,0,0,1-5.57-11c-2.51-13.42-2.07-27-1.11-40.43a166.8,166.8,0,0,1,11.11-49.12c2.05-5.23,3.75-10.66,6.39-15.59,6.21-11.63,12.67-23.15,19.51-34.42,2.3-3.78,6.09-6.65,9.16-10a14.6,14.6,0,0,0,2.63-3.38c1.58-3.27,4.4-4.11,7.59-4.14,6.9-.06,13.82-.21,20.71.12C165.93,47.49,171,48.58,174.56,53.24ZM153.67,75.71c-4.52,5.65-9.12,10.13-10.7,16.62-.33,1.33-1.42,2.47-2.09,3.73-1.54,2.89-3,5.83-4.57,8.7-1,1.8-2.14,3.51-3.23,5.26a12.46,12.46,0,0,0-1.49,2.48q-5.28,16.56-10.44,33.17a22.53,22.53,0,0,0-.84,4.55q-1.41,14.57-2.71,29.15a9.37,9.37,0,0,0,.14,2.3c.46,2.92,1,5.82,1.43,8.74.56,3.5.49,7.21,3.48,10.67,2.53-2.44,5.29-4.4,7.15-7,16-22.43,24.5-47.44,24.94-75.06q.19-12.58-.07-25.19C154.55,88,154.05,82.24,153.67,75.71Z" transform="translate(0 -10.13)"/><path class="cls-1" d="M243.7,145l-13.24-1.18-.81-1.19a54,54,0,0,0-1.81,6.49c-.79,5.23-1.29,10.5-2,15.74-1.26,9.36-2.5,18.72-3.93,28.06A84.64,84.64,0,0,1,219,206.54a18.61,18.61,0,0,1-4.93,7.62c-1.15,1.06-3.9.37-6,0-2.48,2.05-5.05,4.18-8.92,3.44a4,4,0,0,0-2.14.69c-5.4,2.68-11.48-.3-11.48-6.37a169.36,169.36,0,0,1,1.9-22c1-7.86,2.49-15.67,3.92-23.47,1.85-10.07,3.75-20.13,5.82-30.15,4.93-24,10-48,15-72,1.32-6.35,1.17-8-.61-11.54,6.51-5.27,19-5.82,25.7-1,1.84,1.34,3.13,1,5,0,10.42-6,21.44-8.71,33.32-5.2a26.08,26.08,0,0,1,14.9,11c2.29,3.61,3.17,8.2,4.28,12.45A29.29,29.29,0,0,1,296,79.42,190.41,190.41,0,0,1,293,103.3c-.93,4.42-3.51,8.6-5.85,12.59-1.89,3.21-4.95,5.74-6.75,9-2.45,4.42-7.48,5.15-10.6,8.45-.7.73-1.68,2-1.47,2.68,1.54,5.43,3.36,10.79,5,16.18a18.49,18.49,0,0,1,.59,3.24q1.85,14.76,3.67,29.52c.36,3,.51,5.94,1,8.88s1.48,6.08,1.75,9.16a16.74,16.74,0,0,1-.78,6.59c-.65,2-2.08,3.74-3,5.34a42.4,42.4,0,0,0-4.25,1.81c-6.26,3.52-11.45,4.34-17.59,2.75-.34-.95-.7-1.79-.93-2.66a53.17,53.17,0,0,1-1.27-5.27c-.59-3.56-1.13-7.14-1.54-10.74-1.59-13.81-3-27.64-4.7-41.44C245.72,154.57,244.59,149.83,243.7,145Zm-11.15-22.45c12.81-5.52,23.19-12.6,29.35-24.62,3.29-6.43,5.93-13.1,5.64-20.46-.33-8.37-5.49-13.86-12.42-12.31-5,1.11-9.53,4.2-14.21,6.52a2.37,2.37,0,0,0-.68,1.94c1.2,9.72-.91,19.07-3,28.42C235.7,108.66,234.2,115.28,232.55,122.54Z" transform="translate(0 -10.13)"/><path class="cls-1" d="M658.18,52.4c9.12-4.66,17.79-5.81,26.65-.24.94.59,3,.31,4-.32a47.86,47.86,0,0,1,23.9-6.74,28.52,28.52,0,0,1,24.45,12.3c2.57,3.57,3.23,8.58,4.48,13a23.74,23.74,0,0,1,1.22,8.07c-.69,8.33-1.33,16.72-3,24.89-.89,4.42-3.43,8.66-5.84,12.6a60.82,60.82,0,0,1-8.5,10.93c-2.54,2.57-6,4.23-8.91,6.47-.76.58-1.6,2-1.39,2.72,1.56,5.44,3.41,10.78,5.09,16.18a21.18,21.18,0,0,1,.55,3.58q1.92,14.92,3.83,29.86c.16,1.31.16,2.65.4,3.95.83,4.47-.22,9.14,2.11,13.53.82,1.54,0,4.24-.64,6.21s-2.11,3.74-3.25,5.67c-1.29.51-2.75,1.24-4.3,1.69-4.18,1.22-8.33,2.8-12.61,3.34s-6.56-1.94-7.11-6.42c-.74-6.1-1.51-12.2-2.18-18.3-1.34-12.07-2.52-24.16-4-36.22-.58-4.79-1.73-9.51-2.61-14.18l-13.14-1.17-.85-1.24a52.12,52.12,0,0,0-1.82,6.48c-.81,5.22-1.31,10.49-2,15.73-1.1,8-2.17,15.9-3.46,23.81-.83,5.06-2.75,10.05-2.86,15.09-.1,4.59-3.7,6.74-5.25,10.23-.91,2.06-4,1.29-6.29-.24-2.34,2.74-5.14,4.65-9.07,4a3.57,3.57,0,0,0-1.82.62c-5.43,2.73-11.35-.16-11.53-6.29a114.45,114.45,0,0,1,1.31-18.74c1.25-9.06,2.93-18.06,4.58-27.06,1.85-10.07,3.91-20.11,5.82-30.18,1.93-10.24,3.58-20.55,5.72-30.75,2.88-13.69,6.18-27.3,9.15-41C659.93,60.45,661,56.47,658.18,52.4Zm21.38,70.06c13.46-5.53,24.28-13.29,30.07-26.25,2.47-5.52,4.65-11.74,4.69-17.65.08-11.33-7.16-17.35-18.73-11.61-2.26,1.12-4.32,2.66-6.55,3.84a3.11,3.11,0,0,0-1.85,3.68,29,29,0,0,1,.2,7.89c-1.09,7.4-2.4,14.77-3.83,22.11C682.41,110.37,681,116.21,679.56,122.46Z" transform="translate(0 -10.13)"/><path class="cls-1" d="M637.56,73.88c-.79-4.9-.85-10.22-4.87-14-12.94-12.32-34.23-15.75-50.63-8.28a3.89,3.89,0,0,1-3.38-.14c-6-5-12.85-6.06-20.18-4.69-4.57.86-7.71,4-6.47,7.06,2.2,5.47.41,10.47-.47,15.57-3.09,17.93-6.6,35.79-9.59,53.74q-4.23,25.29-7.7,50.72c-1.65,12.12-2.72,24.32-4,36.48-.23,2.12,0,3.85,2.65,4.48s3.72-.37,4-1.67l7.7-2.36c.21,2.54.38,4.73.59,7.28l9.12-3.61,1.19,1.68.62-.88c1.7.22,3.41.35,5.09.69,1.87.39,3.93,1.74,5.53,1.3,3.52-1,7.42-2.15,10.07-4.48,5.42-4.76,12.33-8,16-14.66.33-.6,1.2-.9,1.81-1.36,4.49-3.4,10.72-5.19,11.29-12.24,0-.46.63-.88,1-1.33,3.14-4.39,6.48-8.65,9.36-13.21,3.06-4.83,5.58-10,8.5-14.9,4.22-7.09,5.15-15.15,6.89-23,1.78-8,3-16.17,4.46-24.27C638.09,96.56,639.39,85.25,637.56,73.88Z" transform="translate(0 -10.13)"/><path class="cls-2" d="M592.64,62.54c-3,1.53-6.24,2.75-9.34,4.18-.66.3-1.68.9-1.69,1.38,0,3.27-2.21,6.6.29,9.86.42.54.23,1.66.1,2.49-3.46,22.68-7,45.34-10.42,68-1.48,9.91-2.63,19.87-4,30.66,1.17-.73,1.54-.93,1.88-1.17,5.26-3.66,8.33-9.13,12.18-14.05,8.06-10.29,13.18-21.84,16.65-34.23a190.54,190.54,0,0,0,7.36-49.94c0-5.8-1.36-11.4-5.84-15.68C597.73,62.12,595.54,61.09,592.64,62.54Z" transform="translate(0 -10.13)"/><path class="cls-1" d="M983.6,203.19c10.56-13.58,10.5-29.34,14.2-44a52.91,52.91,0,0,1-7.12-1.77c-4.62-1.86-7.15-6.05-6.43-10,.75-4.16,6.06-9.52,10-9.43,9.26.24,18.5.83,27.76,1.29a8.59,8.59,0,0,1,1.93.39c5.12,1.53,6.44,3.63,6.86,9,.18,2.24-.5,5.06,2.12,6.78.25.16-.51,1.87-.68,2.46a52.78,52.78,0,0,1,0,6.92c-1.18,8.53-2.63,17-6.47,24.84-2.22,4.56-3.43,9.63-5.85,14a57.46,57.46,0,0,1-7.92,10.34,23.71,23.71,0,0,1-6.25,4.88c-10.09,5.47-20.52,10.19-32.43,7.88a38.38,38.38,0,0,1-18.68-9.23A49.81,49.81,0,0,1,939.47,192c-1.08-4.36-.45-9.23-.15-13.84,1.53-23.65,9.54-45.82,16.11-68.27,5.34-18.24,12.35-35.91,23.26-51.68,2-2.88,5.2-4.92,7.82-7.38a15.67,15.67,0,0,0,1.67-2c2.51-3.27,10.34-4.85,14.33-3.56,2.85.92,6,.69,9.08,1.11,6,.83,12.12,1.28,17.95,2.82,4.45,1.17,9.27,2.52,11.62,7.52,1,2.15,3,3.86,4,6A9.14,9.14,0,0,1,1046,68a103.2,103.2,0,0,1-3.63,14.45,86.2,86.2,0,0,1-6.48,14.44c-2.69,4.64-5.61,9.48-9.54,13a16.24,16.24,0,0,1-15.13,3.33c-1.39-.35-2.76-.79-4.16-1-3.56-.67-4.15-2.06-2.95-5.52,3.16-9.14,6.23-18.32,9.06-27.56.62-2,.09-4.38.09-6.58l-1.15-.31a16.57,16.57,0,0,0-2.79,2.54c-2.67,3.86-5.61,7.62-7.7,11.79-4.33,8.65-8.48,17.42-12.15,26.37a171.2,171.2,0,0,0-7.86,23,303.12,303.12,0,0,0-7.16,34.94c-1,7.76-2.21,16.14,2.33,23.52C978.61,197.37,981.1,200,983.6,203.19Z" transform="translate(0 -10.13)"/><path class="cls-1" d="M379.1,212.09c.3,1.88.61,3.75,1,6.08a78.79,78.79,0,0,1-8.56,1.63c-.89.08-2.36-1.07-2.79-2-1-2.25-2.16-4.68-2.3-7.09-.77-13.77-1.26-27.56-1.87-41.34a9.55,9.55,0,0,0-.22-1.48c-5.66.79-11.15,1.59-16.66,2.29-2,.25-4.1.76-5.91.26-4.26-1.18-5.66,1.22-6.84,4.49-3.64,10.13-7.27,20.28-11.1,30.35a37.35,37.35,0,0,1-4.14,7.46c-.91,1.35-2,3-4.35,1.74-.59-.31-2,.82-2.95,1.47a8.68,8.68,0,0,0-1.52,1.88l-3-4.77c-.53.29-.85.35-.9.5-1.46,4.27-4.51,4.92-8.54,4.12a47.36,47.36,0,0,0-7.27-.35c-3.9-.16-6.11-2.4-5.27-6.3a118,118,0,0,1,4.55-15.88c6.46-17.54,15.09-34.1,23.1-50.94,10.27-21.59,19.63-43.62,29.53-65.39,4.1-9,8.55-17.87,12.93-26.75a2.85,2.85,0,0,1,2.11-1.45c8.65,1,17.29,2,25.9,3.21a4.8,4.8,0,0,1,2.82,2.23,106.88,106.88,0,0,1,6.61,12c1.2,2.76,1.48,5.94,2,9a225.84,225.84,0,0,1,4,37.46c.15,17.2,1.42,34.39,2.11,51.59.11,2.74-.55,5.51-.39,8.25.22,4,.95,7.9,1.29,11.87.2,2.39.1,4.81.11,7.21,0,3.69,0,7.38,0,11.25l-5-.63-6.58,12-6.14-2.29-3.37,2.3-1.28-1.45-.66-3,2.81,2.5L380,211.62Zm-16.46-99.91-1.3-.19c-4.35,10.7-8.7,21.4-13.34,32.79l15.71-1.1C363.35,133.06,363,122.62,362.64,112.18Z" transform="translate(0 -10.13)"/><path class="cls-1" d="M1124.44,63.23l-1.15.45v6.95c-3.84,3.7-8,3.44-12.47,3.44-5.39,0-10.78,1.62-16.18,2.51a44,44,0,0,1-4.58.52c-3,.17-4.3,1.85-4.25,5,0,1.49-.58,3-.66,4.49-.25,4.68.44,9.6-.79,14-1.5,5.41.25,10.54-.59,15.8,4.82-.6,9.34-1.57,13.86-1.6,3.3,0,6.66,1,9.88,1.95,1.84.55,2.63,2,1.37,4.12-1.67,2.89-2.53,6.32-4.5,9a17.18,17.18,0,0,1-9.48,6.71,34.35,34.35,0,0,0-5.29,1.89c-8.62,3.82-6.82,1.66-7.34,10.65-.33,5.68.48,11.41.77,17.12a6,6,0,0,1,0,2.31c-2.9,7.72-1.12,15.85-2.57,24.78,3.65-.77,6.72-1.22,9.66-2.1,3.44-1,6.79-2,10.28-.39,3.14,1.48,4.34,4.18,3.1,7.13l2.13.83c0,.3-.12.6-.13.89-.06,2.13.21,4.31-.24,6.35-.37,1.71-1.56,3.25-2.44,4.83,0,.08-.79-.27-.87-.17-2.58,3.52-6.71,1.48-9.81,2.75.08-.76.16-1.55.23-2.35a7,7,0,0,0-2.18.44c-2.16,1.21-4.18,2.69-6.39,3.79a8.09,8.09,0,0,1-3.92.47c-4.19,3.82-9.53,4.74-15,5.4-2.8.33-5.54,1.09-8.31,1.63a7.34,7.34,0,0,1-1.85.24c-3.37-.16-6.73-.37-10.86-.6-.95-4.81-2-10.28-3.12-15.75l.9.42c.9-1.53,2.41-3,2.62-4.61,1-8.39,1.7-16.83,2.63-25.24.32-2.91,1-5.78,1.51-8.67a7.24,7.24,0,0,0-.05-1.54c-.14-3.49-.5-7-.36-10.46a191.42,191.42,0,0,1,1.3-19.17c1.32-9.38,3.23-18.67,4.92-28,3.18-17.59,6.56-35.14,7.16-53.07.06-1.84.67-2.87,2.45-3.27,3.64-.81,7.67-3.09,10.82-2.21,6.34,1.77,11.72-1.66,17.65-1.57s12.1-1,18.16-1.08a24.74,24.74,0,0,1,9,1.66c3.72,1.43,4.76,4.82,4,8.53C1123.11,59.81,1124,61.52,1124.44,63.23Z" transform="translate(0 -10.13)"/><path class="cls-1" d="M81.44,114.49l-3.58,2.87L80,118.53c-.79,2.17-2.08,4.3-.92,6.85.19.42-.72,1.76-1.39,2.07a11.13,11.13,0,0,1-4.43,1.19c-8.87,0-16.6,4.08-24.73,6.76-.58.19-1.5.71-1.51,1.1-.1,5.77-4.15,10.76-2.54,17.1.85,3.38-1.06,7.48-1.8,11.23-.25,1.28-.9,2.48-1.07,3.76q-2.22,16.22-4.3,32.46c-.46,3.61-.81,7.23-1.16,10.85-.15,1.53.14,2.82-2.4,2.93-1.34.06-2.65,2.35-3.84,3.74-1.33,1.55-1.93,4.29-5,2.25-.48-.32-2.37.73-3,1.6-2.05,2.73-4.6,3.73-7.67,2.56-2.77,3-9.21,4.22-13.18,1.63a3.14,3.14,0,0,1-1-2.38c.15-5.54,0-11.13.78-16.61,1.31-9.83,3.27-19.57,4.76-29.37,2.51-16.47,4.89-32.95,7.27-49.43,2.56-17.68,4.85-35.39,9.59-52.67.92-3.36,1-7,1.23-10.48.09-1.4-.46-2.84-.79-4.62a14.58,14.58,0,0,1,10.44-4.7c.44,0,1.07.14,1.3-.09,4-4,9-.54,13.4-1.77,1.47-.42,3.17-.14,4.54-.7,8.06-3.3,16.73-1.82,25-3.31,2.57-.47,5.26-.21,7.87-.52,3-.35,4.23,1.84,5.69,3.58a72.12,72.12,0,0,1,4.19,6.13L93,61.24l3.92,4.14-5.76.55a11.45,11.45,0,0,1,1.15,1.9c.35,1,1,2.32.67,2.87-.8,1.17-1,3.51-3.41,2.77-1.26-.38-2.5-.81-3.75-1.2A4.64,4.64,0,0,0,84,71.8c-1.92.27-4.07,1.45-5.7.92-4.91-1.6-8.68,2.5-13.24,2.09-2-.18-3.92-.31-5.83-.46L56.48,77l-1.06-.61C53.63,87.1,51.83,97.78,50,109c4.15-.69,7.55-1.35,11-1.79a82.74,82.74,0,0,1,9.54-.8,6,6,0,0,1,5.68,3.21C77.24,111.43,79.4,112.66,81.44,114.49Z" transform="translate(0 -10.13)"/><path class="cls-1" d="M795.07,204.91l-3.26.23,5.1,2.87c-1.82,3.23-2.17,7.69-6.89,7.92-3.08-.58-6.14-1.37-9.25-1.67-4.71-.45-9.46-.74-14.19-.75-3.31,0-6.62.88-9.91.8-6.46-.15-12.92-.62-19.35-1.16a4.16,4.16,0,0,1-2.61-2,53.48,53.48,0,0,1-3.93-8c-.84-2.24-.29-3.82,2.71-4.34,7.79-1.36,15.51-3.11,23.41-4.74a65.92,65.92,0,0,1,.72-7.25c.68-3.28,1.76-6.46,2.55-9.72,1.39-5.77,3.25-11.49,3.94-17.34a480.7,480.7,0,0,1,16.25-79.23c1.09-3.74.84-3.63-3.06-4.18-4.36-.62-9.28-2.82-10.3-8.26-.77-4.11-1.47-8.25-2-12.4-.37-3.12,4.33-7.07,9.17-7.83l1,3.29c4.42-.23,8.91-.57,13.4-.7,9.38-.28,18.76-.44,28.14-.69a16.33,16.33,0,0,0,3.27-.39c5.12-1.22,8.87,1,10.28,6.21.5,1.87.4,4.14,1.46,5.59,1.67,2.29.88,2.83-1.29,3.31-.29.06-.46.64-1,1.36h2.73c1.48,1.39.21,4.4-2.35,5.4,0,4.14-1.53,5.45-5.65,4.88-3.38-.47-6.77-.91-10.17-1.3-2.21-.24-3.07.57-3.52,3-2.89,15.66-4,31.71-9.78,46.73-4.73,12.29-6.16,25.2-8.06,38.06-1.28,8.71-3.06,17.34-4.85,26-.44,2.13-.67,3.41,1.39,5a30.11,30.11,0,0,1,6,7C795.84,201.47,795.2,203.1,795.07,204.91Z" transform="translate(0 -10.13)"/><path class="cls-1" d="M376.19,25.19c1.41-4.24,2.65-8.54,4.35-12.67.41-1,2.36-1.91,3.56-1.85,5.06.24,10.13.67,15.15,1.4,3.59.53,6.46,2.3,6.83,6.48,0,.21,0,.55.14.63,5.86,3.31,2,8.15.77,11.32-2.34,6-7.9,8.82-14.46,7.94a40.91,40.91,0,0,1-10.33-3.19c-4.17-1.79-5.49-5.46-5.21-9.82Z" transform="translate(0 -10.13)"/><path class="cls-1" d="M352.85,10.5c6.37.05,12.48,1,17.95,4.61,2.08,1.35,2.38,2.77,2,5.4-.73,5.49-4,9.28-7.08,13.32-4.55,6-19.61,5.6-23.51-.83-1.25-2.08-1.54-5.05-1.43-7.57a27.68,27.68,0,0,1,1.95-8C345.26,10.56,345.52,10.46,352.85,10.5Z" transform="translate(0 -10.13)"/><path class="cls-1" d="M186.84,19.8c-.23,1.78-.43,3.3-.61,4.83-.86,7.38-9.2,12.23-14.8,11-.32-.07-.64-.15-1-.21-13-2.41-17.19-13.42-9.14-24A3.65,3.65,0,0,1,164,10.17c4.17.24,8.34.58,12.48,1.16,3.7.52,7.13,1.51,7.7,6.24C184.25,18.44,186,19.12,186.84,19.8Z" transform="translate(0 -10.13)"/><path class="cls-1" d="M138.88,35.73a65.2,65.2,0,0,1-7.23-1.56c-5.18-1.8-7.05-4.78-6.76-10.33a10.33,10.33,0,0,1,.31-2.62c3.93-12.12,2.49-11.74,15-10.5,4.11.41,8.1,2.46,12,4,1.82.72,2,2.37,1.8,4.41-.53,5.87-4.23,9.89-8,13.63C144.24,34.59,141,34.93,138.88,35.73Z" transform="translate(0 -10.13)"/></svg>