<svg id="Lager_6" data-name="Lager 6" xmlns="http://www.w3.org/2000/svg" viewBox="0 0 1290.59 230.67"><defs><style>.cls-1{fill:#ff7bac;}</style></defs><title>logo</title><path class="cls-1" d="M293.78,79.28C292.23,23.55,232.49,51,232.49,51l1.07-9.64-29,8.39L178.79,227.1l34.16.18,9.33-84.22,22,84.39,37.1.2s-23.45-67.9-27.73-89.53C253.67,138.12,295.33,134.69,293.78,79.28ZM225.2,116.06l4.6-40.86s32.92-18.36,32.8,11.35S225.2,116.06,225.2,116.06Z" transform="translate(3.69 0)"/><path class="cls-1" d="M770.19,79.14c-1.86-55.72-61.45-28-61.45-28l1-9.65-29,8.55L656,227.57h34.16L699,143.3l22.47,84.27h37.1s-23.81-67.77-28.21-89.37C730.39,138.2,772,134.54,770.19,79.14ZM701.8,116.28l4.39-40.88S739,56.87,739,86.57,701.8,116.28,701.8,116.28Z" transform="translate(3.69 0)"/><polygon class="cls-1" points="537.61 43.03 508.57 51.43 494.25 150.15 467.17 52.31 468.24 42.66 439.19 51.05 413.47 228.43 447.63 228.61 456.96 144.39 478.98 228.78 482.84 228.8 482.84 228.8 501.36 228.9 516.08 228.98 516.08 228.98 517.01 228.99 537.61 43.03"/><polygon class="cls-1" points="922.78 50.06 908.99 148.85 881.38 51.16 882.4 41.51 853.4 50.06 828.63 227.57 862.79 227.57 871.67 143.3 894.13 227.57 898 227.57 931.24 227.57 932.17 227.57 951.77 41.51 922.78 50.06"/><polygon class="cls-1" points="1261.6 50.06 1247.81 148.85 1220.2 51.16 1221.22 41.51 1192.22 50.06 1167.44 227.57 1201.61 227.57 1210.49 143.3 1232.95 227.57 1236.82 227.57 1270.06 227.57 1270.98 227.57 1290.59 41.51 1261.6 50.06"/><polygon class="cls-1" points="799.63 50.06 774.86 227.57 809.02 227.57 828.63 41.51 799.63 50.06"/><path class="cls-1" d="M46.84,78.44c1.83-.27,14.65-2.26,28.77-6,15.25-4,21.69-32.25,21.69-32.25L49.79,51.81l.22-2,1.07-9.65L22,48.56-3.69,225.94l34.17.18,9.14-82.47,28.14-4.49,4.48-28.48L42.75,115.4Z" transform="translate(3.69 0)"/><path class="cls-1" d="M335.33,50.48l-50.5,177.24,34.16.18,8.84-36.21c8.71-.86,21-3.5,31.61-11l8.79,47.47,34.17.18-38-186.27Zm-1,114.46,12.6-51.6,7.13,38.48C350.39,157,344.29,162.36,334.37,164.94Z" transform="translate(3.69 0)"/><polygon class="cls-1" points="1163.9 69.82 1170.92 41.33 1123.48 53.15 1123.69 51.16 1124.7 41.51 1095.71 50.06 1070.93 227.57 1105.1 227.57 1105.21 226.53 1149.86 215.42 1156.88 186.93 1108.16 199.07 1108.06 199.46 1113.79 145.05 1141.91 140.41 1146.24 111.91 1116.77 116.78 1120.59 80.6 1163.9 69.82"/><path class="cls-1" d="M149.44,45.37c-12-.07-52.37,3.88-68.94,83.86s-.19,97.25,24.14,97.38,63.74-10.84,75.84-94.79S161.42,45.43,149.44,45.37Zm-4.18,89.81c-9.42,50.13-22.64,55.44-30.34,54.57s-11.73-11.8-1.16-59.39,23.63-48.65,27.42-48.22S154.68,85.06,145.26,135.18Z" transform="translate(3.69 0)"/><path class="cls-1" d="M332.67,24.29A15.37,15.37,0,0,0,344.2,22.4h0A11.36,11.36,0,0,0,346.89,20c2.34-1.52,6.1-2.74,10.88-.11h0a15.92,15.92,0,0,0,8.34,4.59c7.61,1.61,14.86-2.16,16.19-8.44S378.55,3.36,370.94,1.75a16.41,16.41,0,0,0-6.35-.11v0l0,0a13.82,13.82,0,0,0-6.12,2.7h0s-7.33,3.56-14.13.39l-.05,0a16.36,16.36,0,0,0-6.76-3.14C329.88,0,322.63,3.73,321.3,10S325.06,22.67,332.67,24.29Z" transform="translate(3.69 0)"/><path class="cls-1" d="M133.82,23.1a15.42,15.42,0,0,0,11.53-1.89h0A11.4,11.4,0,0,0,148,18.78c2.34-1.51,6.1-2.73,10.88-.1h0a16,16,0,0,0,8.33,4.59c7.62,1.61,14.87-2.17,16.2-8.44S179.7,2.17,172.09.55a16.66,16.66,0,0,0-6.36-.11h0l0,0a13.73,13.73,0,0,0-6.11,2.7h0s-7.34,3.55-14.14.39l0,0A16.5,16.5,0,0,0,138.64.37c-7.61-1.61-14.87,2.16-16.2,8.44S126.2,21.48,133.82,23.1Z" transform="translate(3.69 0)"/><path class="cls-1" d="M622.37,41.51C594.5,41.51,581.08,60,581.08,60l-.28,2.67L583,41.51l-29,8.55L529.26,227.57h34.16c34.16,0,72.42-12.32,87.75-93S650.24,41.51,622.37,41.51Zm-55,148.68L577.6,93s47.26-44.12,47.26,15.44C624.86,155.1,610.25,183.59,567.36,190.19Z" transform="translate(3.69 0)"/><path class="cls-1" d="M974,84.92C951.46,140.25,939.78,176.11,951,201.7s45.32,37.72,70.12,21.84,35.07-56.14,27.83-76.49-47.45-9.59-47.45-9.59l-6.72,21.93,27.75.13s-1.55,40.38-22.39,43.55c-40.66,6.18.66-128.14,21.84-128.3,18.42-.14-.69,34.8-.69,34.8h32.43C1085.23,15.31,994.12,35.3,974,84.92Z" transform="translate(3.69 0)"/></svg>